<svg width="356" height="356" viewBox="0 0 356 356" fill="none" xmlns="http://www.w3.org/2000/svg">
<path d="M305.89 0H50.1103C22.4351 0 0 22.4351 0 50.1103V305.89C0 333.565 22.4351 356 50.1103 356H305.89C333.565 356 356 333.565 356 305.89V50.1103C356 22.4351 333.565 0 305.89 0Z" fill="white"/>
<path d="M268.278 98.894L186.824 51.3845C181.368 48.2052 174.632 48.2052 169.176 51.3845L129.267 74.6649L92.7434 95.9626L87.7218 98.894C82.325 102.048 79 107.834 79 114.098V233.902C79 240.166 82.325 245.952 87.7218 249.106L169.176 296.616C174.632 299.795 181.368 299.795 186.824 296.616L226.775 273.318L263.385 251.969L268.278 249.114C273.675 245.969 277 240.175 277 233.91V114.107C277 107.842 273.675 102.056 268.278 98.9026V98.894ZM177.761 68.2551L257.357 115.047L241.593 126.208C234.934 130.926 226.153 131.353 219.068 127.302L147.06 86.1598L177.753 68.2551H177.761ZM177.77 279.745L98.6261 233.526L115.848 221.142C122.634 216.262 131.663 215.877 138.842 220.159L208.582 261.78L177.77 279.753V279.745ZM258.371 232.74L247.817 238.893L97.1597 151.326V115.26L107.834 109.039L258.371 196.545V232.748V232.74Z" fill="#111111"/>
</svg>
