<svg width="356" height="356" viewBox="0 0 356 356" fill="none" xmlns="http://www.w3.org/2000/svg">
<path d="M305.89 0H50.1103C22.4352 0 0 22.4351 0 50.1103V305.89C0 333.565 22.4352 356 50.1103 356H305.89C333.565 356 356 333.565 356 305.89V50.1103C356 22.4351 333.565 0 305.89 0Z" fill="#111111"/>
<path d="M268.278 103.495L186.824 56.3654C181.368 53.2115 174.632 53.2115 169.176 56.3654L129.267 79.4596L92.7434 100.587L87.7217 103.495C82.325 106.623 79 112.363 79 118.577V237.423C79 243.637 82.325 249.377 87.7217 252.505L169.176 299.635C174.632 302.788 181.368 302.788 186.824 299.635L226.775 276.523L263.385 255.345L268.278 252.514C273.684 249.394 277 243.646 277 237.431V118.586C277 112.371 273.675 106.632 268.278 103.503V103.495ZM178 291.479L90.0322 240.517L113.162 224.019C119.949 219.178 128.977 218.796 136.156 223.044L215.308 269.902L178.009 291.487L178 291.479ZM265.482 240.873L251.909 248.724L90.5182 155.669V115.135L104.21 107.217L265.482 200.204V240.873ZM244.884 131.252C238.225 135.932 229.444 136.356 222.359 132.337L140.734 86.0725L177.991 64.5128L266.454 116.093L244.875 131.252H244.884Z" fill="white"/>
</svg>
