<svg width="198" height="250" viewBox="0 0 198 250" fill="none" xmlns="http://www.w3.org/2000/svg">
<path d="M189.278 49.894L107.824 2.38445C102.368 -0.794817 95.6324 -0.794817 90.1759 2.38445L50.2673 25.6649L13.7434 46.9626L8.72176 49.894C3.32502 53.0477 0 58.8336 0 65.0981V184.902C0 191.166 3.32502 196.952 8.72176 200.106L90.1759 247.616C95.6324 250.795 102.368 250.795 107.824 247.616L147.775 224.318L184.385 202.969L189.278 200.114C194.675 196.969 198 191.175 198 184.91V65.1067C198 58.8421 194.675 53.0562 189.278 49.9026V49.894ZM98.7613 19.2551L178.357 66.0468L162.593 77.2084C155.934 81.926 147.153 82.3533 140.068 78.3023L68.0604 37.1598L98.7528 19.2551H98.7613ZM98.7698 230.745L19.6261 184.526L36.8479 172.142C43.6343 167.262 52.663 166.877 59.8416 171.159L129.582 212.78L98.7698 230.753V230.745ZM179.371 183.74L168.817 189.893L18.1597 102.326V66.2604L28.8338 60.0386L179.371 147.545V183.748V183.74Z" fill="#111111"/>
</svg>
